<svg clip-rule="evenodd" fill-rule="evenodd" stroke-linejoin="round" stroke-miterlimit="2" viewBox="0 0 256 256" xmlns="http://www.w3.org/2000/svg"><path d="m190.616 219.441h-125.232c-10.213 0-18.505-8.292-18.505-18.505v-125.232c0-10.213 8.291-18.505 18.505-18.506h17.51c-.076-.372-.117-.758-.117-1.154v-13.796c0-3.14 2.549-5.689 5.689-5.689h11.378c3.139 0 5.688 2.549 5.688 5.689v13.796c0 .396-.04.782-.117 1.154h45.533c-.077-.372-.117-.758-.117-1.154v-13.796c0-3.14 2.549-5.689 5.689-5.689h11.378c3.139 0 5.688 2.549 5.688 5.689v13.796c0 .395-.04.78-.117 1.154h17.147c10.215.002 18.505 8.293 18.505 18.506v125.232c0 10.212-8.29 18.504-18.505 18.505z" fill="#e82d0c" transform="matrix(1.39981 0 0 1.39981 -51.175664 -51.1756)"/><path d="m34.41571845 80.45543335h187.16999491v154.39344376h-187.16999491z" fill="#fff" stroke-width="1.39981"/><path d="m176.222 339.962c-2.034-.244-4.004-1.145-5.564-2.705l-66.333-66.334c-3.697-3.696-3.697-9.699 0-13.395l13.395-13.396c3.697-3.696 9.699-3.696 13.395 0l46.251 46.251 46.248-46.248c3.696-3.697 9.699-3.697 13.395 0l13.396 13.395c3.696 3.697 3.696 9.699 0 13.396l-66.334 66.333c-2.141 2.141-5.056 3.042-7.849 2.703zm0-86.518c-2.034-.243-4.004-1.145-5.564-2.705l-66.333-66.333c-3.697-3.697-3.697-9.699 0-13.396l13.395-13.395c3.697-3.696 9.699-3.696 13.395 0l46.251 46.25 46.248-46.248c3.696-3.696 9.699-3.696 13.395 0l13.396 13.396c3.696 3.696 3.696 9.699 0 13.395l-66.334 66.334c-2.141 2.141-5.056 3.042-7.849 2.702z" fill="#e82d0c" transform="matrix(.640232 0 0 .640232 14.445936 .000344)"/></svg>